<svg width="18" height="18" viewBox="0 0 18 18" fill="none" xmlns="http://www.w3.org/2000/svg">
<path fillRule="evenodd" clipRule="evenodd" d="M8.99961 1.77207C8.6475 1.77207 8.41356 1.50889 8.41356 1.18602C8.41356 0.863156 8.6475 0.599976 8.99961 0.599976H16.8136C17.1657 0.599976 17.3996 0.863156 17.3996 1.18602C17.3996 1.50889 17.1657 1.77207 16.8136 1.77207H8.99961ZM1.18566 5.67905C0.833548 5.67905 0.599609 5.41586 0.599609 5.093C0.599609 4.77013 0.833548 4.50695 1.18566 4.50695H16.8136C17.1657 4.50695 17.3996 4.77013 17.3996 5.093C17.3996 5.41586 17.1657 5.67905 16.8136 5.67905H1.18566ZM16.8136 9.58602H8.99961C8.6475 9.58602 8.41356 9.32284 8.41356 8.99998C8.41356 8.67711 8.6475 8.41393 8.99961 8.41393H16.8136C17.1657 8.41393 17.3996 8.67711 17.3996 8.99998C17.3996 9.32284 17.1657 9.58602 16.8136 9.58602ZM1.18566 13.493C0.833548 13.493 0.599609 13.2298 0.599609 12.907C0.599609 12.5841 0.833548 12.3209 1.18566 12.3209H16.8136C17.1657 12.3209 17.3996 12.5841 17.3996 12.907C17.3996 13.2298 17.1657 13.493 16.8136 13.493H1.18566ZM8.99961 17.4C8.6475 17.4 8.41356 17.1368 8.41356 16.8139C8.41356 16.4911 8.6475 16.2279 8.99961 16.2279H16.8136C17.1657 16.2279 17.3996 16.4911 17.3996 16.8139C17.3996 17.1368 17.1657 17.4 16.8136 17.4H8.99961Z" fill="#92929D"/>
</svg>
