<svg width="18" height="18" viewBox="0 0 18 18" fill="none" xmlns="http://www.w3.org/2000/svg">
<path fillRule="evenodd" clipRule="evenodd" d="M12.9072 1.78149H5.09349C4.74139 1.78149 4.50746 1.51847 4.50746 1.1958C4.50746 0.873129 4.74139 0.610107 5.09349 0.610107H12.9072C13.2593 0.610107 13.4933 0.873129 13.4933 1.1958C13.4933 1.51847 13.2593 1.78149 12.9072 1.78149ZM16.8141 5.68611H1.18662C0.834518 5.68611 0.600586 5.42309 0.600586 5.10042C0.600586 4.77775 0.834518 4.51473 1.18662 4.51473H16.8141C17.1662 4.51473 17.4001 4.77775 17.4001 5.10042C17.4001 5.42309 17.1662 5.68611 16.8141 5.68611ZM5.09349 9.59073C4.74139 9.59073 4.50746 9.32771 4.50746 9.00504C4.50746 8.68237 4.74139 8.41935 5.09349 8.41935H12.9072C13.2593 8.41935 13.4933 8.68237 13.4933 9.00504C13.4933 9.32771 13.2593 9.59073 12.9072 9.59073H5.09349ZM16.8141 13.4954H1.18662C0.834518 13.4954 0.600586 13.2323 0.600586 12.9097C0.600586 12.587 0.834518 12.324 1.18662 12.324H16.8141C17.1662 12.324 17.4001 12.587 17.4001 12.9097C17.4001 13.2323 17.1662 13.4954 16.8141 13.4954ZM12.9072 17.4H5.09349C4.74139 17.4 4.50746 17.137 4.50746 16.8143C4.50746 16.4916 4.74139 16.2286 5.09349 16.2286H12.9072C13.2593 16.2286 13.4933 16.4916 13.4933 16.8143C13.4933 17.137 13.2593 17.4 12.9072 17.4Z" fill="#92929D"/>
</svg>
