<svg width="18" height="18" viewBox="0 0 18 18" fill="none" xmlns="http://www.w3.org/2000/svg">
<path fillRule="evenodd" clipRule="evenodd" d="M8.99961 1.77207H1.18566C0.833548 1.77207 0.599609 1.50889 0.599609 1.18602C0.599609 0.863156 0.833548 0.599976 1.18566 0.599976H8.99961C9.35172 0.599976 9.58566 0.863156 9.58566 1.18602C9.58566 1.50889 9.35172 1.77207 8.99961 1.77207ZM16.8136 5.67905H1.18566C0.833548 5.67905 0.599609 5.41586 0.599609 5.093C0.599609 4.77013 0.833548 4.50695 1.18566 4.50695H16.8136C17.1657 4.50695 17.3996 4.77013 17.3996 5.093C17.3996 5.41586 17.1657 5.67905 16.8136 5.67905ZM1.18566 9.58602C0.833548 9.58602 0.599609 9.32284 0.599609 8.99998C0.599609 8.67711 0.833548 8.41393 1.18566 8.41393H8.99961C9.35172 8.41393 9.58566 8.67711 9.58566 8.99998C9.58566 9.32284 9.35172 9.58602 8.99961 9.58602H1.18566ZM16.8136 13.493H1.18566C0.833548 13.493 0.599609 13.2298 0.599609 12.907C0.599609 12.5841 0.833548 12.3209 1.18566 12.3209H16.8136C17.1657 12.3209 17.3996 12.5841 17.3996 12.907C17.3996 13.2298 17.1657 13.493 16.8136 13.493ZM8.99961 17.4H1.18566C0.833548 17.4 0.599609 17.1368 0.599609 16.8139C0.599609 16.4911 0.833548 16.2279 1.18566 16.2279H8.99961C9.35172 16.2279 9.58566 16.4911 9.58566 16.8139C9.58566 17.1368 9.35172 17.4 8.99961 17.4Z" fill="#92929D"/>
</svg>
