<svg width="23" height="20" viewBox="0 0 23 20" fill="none" xmlns="http://www.w3.org/2000/svg">
<path fillRule="evenodd" clipRule="evenodd" d="M22.1466 3.03046C21.3329 3.40106 20.4567 3.65159 19.5377 3.76353C20.4761 3.18773 21.1964 2.27454 21.5357 1.18695C20.6569 1.72019 19.6859 2.1081 18.6485 2.31607C17.8218 1.41101 16.6401 0.845764 15.3325 0.845764C12.8249 0.845764 10.7906 2.93184 10.7906 5.50461C10.7906 5.86985 10.8295 6.22436 10.9075 6.56572C7.13161 6.37091 3.78441 4.51806 1.54193 1.69615C1.15074 2.38666 0.927028 3.18773 0.927028 4.04088C0.927028 5.65652 1.72914 7.0827 2.94839 7.91855C2.20494 7.89588 1.50283 7.68394 0.88931 7.33738V7.39465C0.88931 9.6527 2.45564 11.5362 4.53548 11.9628C4.15467 12.0722 3.75292 12.1269 3.3382 12.1269C3.0458 12.1269 2.7598 12.0988 2.4828 12.0442C3.0612 13.8944 4.73809 15.242 6.72692 15.278C5.17219 16.5284 3.21207 17.2734 1.08413 17.2734C0.717504 17.2734 0.354859 17.2522 0 17.2094C2.01098 18.529 4.40018 19.3009 6.96482 19.3009C15.3231 19.3009 19.8922 12.2026 19.8922 6.04563C19.8922 5.84303 19.8882 5.64043 19.8804 5.4418C20.7687 4.78468 21.5395 3.96492 22.1466 3.03046Z" fill="#00AAEC"/>
</svg>
