<svg width="13" height="17" viewBox="0 0 13 17" fill="none" xmlns="http://www.w3.org/2000/svg">
<path fillRule="evenodd" clipRule="evenodd" d="M0.606836 16.0175C0.275465 16.0175 0.00683594 15.7489 0.00683594 15.4175V1.01748C0.00683594 0.68611 0.275465 0.41748 0.606836 0.41748H7.00684C9.11496 0.41748 10.8068 2.30457 10.8068 4.61748C10.8068 5.85778 10.3203 6.97563 9.54397 7.74569C11.1947 8.2071 12.4068 9.85975 12.4068 11.8175C12.4068 14.1304 10.715 16.0175 8.60684 16.0175H0.606836ZM1.20684 14.8175H8.60684C10.0323 14.8175 11.2068 13.4817 11.2068 11.8175C11.2068 10.1533 10.0323 8.81748 8.60684 8.81748H1.20684V14.8175ZM1.20684 7.61748H7.00684C8.4323 7.61748 9.60684 6.28168 9.60684 4.61748C9.60684 2.95328 8.4323 1.61748 7.00684 1.61748H1.20684V7.61748Z" fill="#92929D"/>
</svg>
