<svg width="68" height="57" viewBox="0 0 68 57" fill="none" xmlns="http://www.w3.org/2000/svg">
<path d="M60.931 8.18966H49.1379V4.50415C49.1379 2.01613 47.1216 0 44.6336 0H22.5216C20.0335 0 18.0172 2.01613 18.0172 4.50415V8.18966H6.22414C2.78612 8.18966 0 10.9754 0 14.4136V50.7757C0 54.2136 2.78612 57 6.22414 57H60.931C64.369 57 67.1552 54.2136 67.1552 50.7755V14.4135C67.1552 10.9754 64.369 8.18966 60.931 8.18966Z" fill="#D7DEED"/>
<path d="M57.3286 14.7407C59.1385 14.7407 60.6045 16.2067 60.6045 18.0166C60.6045 19.8265 59.1385 21.2924 57.3286 21.2924C55.5187 21.2924 54.0527 19.8265 54.0527 18.0166C54.0527 16.2067 55.5187 14.7407 57.3286 14.7407Z" fill="#5B6072"/>
<path d="M33.5773 18.0176C41.7195 18.0176 48.3187 24.6168 48.3187 32.759C48.3187 40.9013 41.7195 47.5003 33.5773 47.5003C25.4352 47.5003 18.8359 40.9013 18.8359 32.759C18.8359 24.6168 25.4352 18.0176 33.5773 18.0176Z" fill="#707487"/>
</svg>
