<svg width="18" height="12" viewBox="0 0 18 12" fill="none" xmlns="http://www.w3.org/2000/svg">
<path d="M17.9653 5.805C16.6847 2.3328 13.0821 0 9 0C4.91786 0 1.31529 2.3328 0.0347143 5.805C-0.0115714 5.931 -0.0115714 6.069 0.0347143 6.195C1.31529 9.6672 4.91786 12 9 12C13.0821 12 16.6847 9.6672 17.9653 6.195C18.0116 6.069 18.0116 5.931 17.9653 5.805ZM9 9.6C6.87279 9.6 5.14286 7.9854 5.14286 6C5.14286 4.0146 6.87279 2.4 9 2.4C11.1272 2.4 12.8571 4.0146 12.8571 6C12.8571 7.9854 11.1272 9.6 9 9.6Z" fill="#828282"/>
</svg>
