<svg width="23" height="23" viewBox="0 0 23 23" fill="none" xmlns="http://www.w3.org/2000/svg">
<path fillRule="evenodd" clipRule="evenodd" d="M11.829 22.1462H1.22237C0.547082 22.1462 0 21.5988 0 20.9239V1.22237C0 0.547082 0.547082 0 1.22237 0H20.9241C21.599 0 22.1462 0.547082 22.1462 1.22237V20.9239C22.1462 21.599 21.599 22.1462 20.9241 22.1462H15.2806V13.5699H18.1592L18.5902 10.2276H15.2806V8.09376C15.2806 7.12607 15.5493 6.4667 16.9369 6.4667L18.7067 6.46601V3.47661C18.4006 3.43596 17.35 3.34495 16.1277 3.34495C13.5758 3.34495 11.8289 4.90263 11.8289 7.76295V10.2278H8.94293V13.5701H11.829V22.1462Z" fill="#4460A0"/>
</svg>
