<svg width="98" height="93" viewBox="0 0 98 93" fill="none" xmlns="http://www.w3.org/2000/svg">
<path d="M66.688 1.95822L4.44587 29.3737C1.96888 30.4647 0.888205 33.3484 1.97923 35.8254L24.8767 87.8103C25.9677 90.2873 28.8248 91.4366 31.3018 90.3455L93.5439 62.9301C96.0209 61.8391 97.1016 58.9553 96.0106 56.4784L73.1131 4.49347C72.0221 2.01649 69.165 0.867201 66.688 1.95822ZM64.1443 40.5598C63.4232 40.2138 62.5039 40.1068 61.6783 40.4705C60.8685 40.8272 60.4647 41.46 60.0445 42.2708L58.1803 46.0873C57.7569 46.8047 57.3976 47.3232 56.6831 47.6379C56.0003 47.9386 55.2692 47.9573 54.6497 47.7562C54.428 47.6832 54.0233 47.5392 53.6802 47.4059L41.0675 41.9275C40.1106 41.4768 38.9551 41.436 37.8913 41.9046C36.8275 42.3732 36.0738 43.3308 35.7693 44.318L26.3559 77.3951L8.13725 36.0326C7.82046 34.883 8.3193 33.7343 9.39901 33.2587L66.1949 8.24214C67.2905 7.75957 68.5364 8.1777 69.0825 9.24531L87.3418 50.5709L64.1443 40.5598Z" fill="#FCD500"/>
<rect x="16" y="13" width="71" height="60" fill="white"/>
<path d="M71.7714 39.7376C76.3692 39.7376 80.0995 36.0074 80.0995 31.4096C80.0995 26.8118 76.3692 23.0815 71.7714 23.0815C67.1736 23.0815 63.4434 26.8118 63.4434 31.4096C63.4434 36.0074 67.1736 39.7376 71.7714 39.7376Z" fill="#333333"/>
<path d="M86.345 11.9774H18.3326C15.626 11.9774 13.4746 14.1809 13.4746 16.8875V73.6917C13.4746 76.3984 15.626 78.6018 18.3326 78.6018H86.345C89.0517 78.6018 91.2031 76.3984 91.2031 73.6917V16.8875C91.2031 14.1809 89.0517 11.9774 86.345 11.9774ZM68.4571 46.2786C67.9366 45.6713 67.1385 45.2029 66.2363 45.2029C65.3514 45.2029 64.7268 45.6193 64.0155 46.1918L60.771 48.9331C60.0943 49.4189 59.5565 49.7486 58.7757 49.7486C58.0297 49.7486 57.353 49.471 56.8672 49.0372C56.6937 48.8811 56.3814 48.5861 56.1212 48.3259L46.7868 38.2281C46.0928 37.43 45.0518 36.9269 43.8893 36.9269C42.7269 36.9269 41.6512 37.4994 40.9745 38.2802L19.0266 64.7564V19.5594C19.2001 18.3796 20.1197 17.5295 21.2995 17.5295H83.3608C84.558 17.5295 85.5296 18.4143 85.599 19.6115L85.651 64.7911L68.4571 46.2786Z" fill="#FCD500"/>
</svg>
