<svg width="23" height="23" viewBox="0 0 23 23" fill="none" xmlns="http://www.w3.org/2000/svg">
<path fillRule="evenodd" clipRule="evenodd" d="M4.77268 11.0732C4.77268 10.3539 4.89206 9.6643 5.10539 9.01756L1.3734 6.16779C0.646034 7.64449 0.236328 9.30857 0.236328 11.0732C0.236328 12.8364 0.645688 14.4993 1.37184 15.9751L5.10176 13.1198C4.8905 12.476 4.77268 11.789 4.77268 11.0732Z" fill="#FBBC05"/>
<path fillRule="evenodd" clipRule="evenodd" d="M11.3252 4.52988C12.8877 4.52988 14.299 5.08354 15.4079 5.98946L18.6336 2.76822C16.668 1.0569 14.1478 -6.10352e-05 11.3252 -6.10352e-05C6.94302 -6.10352e-05 3.17678 2.50593 1.37341 6.16767L5.10523 9.01744C5.96513 6.4073 8.41627 4.52988 11.3252 4.52988Z" fill="#EA4335"/>
<path fillRule="evenodd" clipRule="evenodd" d="M11.3252 17.6164C8.41644 17.6164 5.9653 15.739 5.1054 13.1288L1.37341 15.9781C3.17678 19.6404 6.94302 22.1463 11.3252 22.1463C14.0298 22.1463 16.6121 21.1859 18.5501 19.3865L15.0077 16.648C14.0082 17.2776 12.7495 17.6164 11.3252 17.6164Z" fill="#34A853"/>
<path fillRule="evenodd" clipRule="evenodd" d="M21.9099 11.0732C21.9099 10.4189 21.809 9.71418 21.6578 9.06H11.3252V13.3382H17.2728C16.9754 14.7969 16.1661 15.9182 15.0077 16.648L18.5501 19.3866C20.5858 17.4972 21.9099 14.6825 21.9099 11.0732Z" fill="#4285F4"/>
</svg>
