<svg width="15" height="19" viewBox="0 0 15 19" fill="none" xmlns="http://www.w3.org/2000/svg">
<path d="M15 7.71857V12.6794C15 13.815 14.5816 14.8908 13.8046 15.7275V16.2655C13.8046 17.2218 13.0276 18.0585 12.0116 18.0585H6.99102C6.03473 18.0585 5.19797 17.2815 5.19797 16.2655C5.19797 15.9069 5.49681 15.6678 5.79565 15.6678C6.0945 15.6678 6.39334 15.9069 6.39334 16.2655C6.39334 16.5643 6.63241 16.8631 6.99102 16.8631H12.0116C12.3104 16.8631 12.6093 16.6241 12.6093 16.2655V15.5482C12.6093 15.4885 12.6093 15.4287 12.6093 15.3689C12.6093 15.3092 12.6093 15.3092 12.6093 15.3092C12.6093 15.2494 12.669 15.1896 12.7288 15.1299C13.3863 14.4724 13.7449 13.6357 13.7449 12.7391V7.77834C13.7449 7.59903 13.6851 7.4795 13.5656 7.35996C13.5058 7.30019 13.2667 7.12088 12.9679 7.18065C12.7288 7.24042 12.4897 7.53926 12.4897 7.83811V9.27255C12.4897 9.63116 12.1909 9.87024 11.892 9.87024C11.5932 9.87024 11.2944 9.63116 11.2944 9.27255V5.98528C11.2944 5.80598 11.2346 5.68644 11.115 5.5669C10.9955 5.44737 10.876 5.3876 10.6967 5.3876C10.3978 5.3876 10.099 5.68644 10.099 5.98528V9.27255C10.099 9.63116 9.80014 9.87024 9.5013 9.87024C9.20246 9.87024 8.90361 9.63116 8.90361 9.27255V4.19223C8.90361 4.01292 8.84385 3.89339 8.72431 3.77385C8.60477 3.65431 8.48523 3.59454 8.30593 3.59454C8.00709 3.59454 7.70824 3.89339 7.70824 4.19223V9.27255C7.70824 9.63116 7.4094 9.87024 7.11056 9.87024C6.81172 9.87024 6.51287 9.63116 6.51287 9.27255V1.74172C6.51287 1.56242 6.45311 1.44288 6.33357 1.32334C6.2738 1.26357 6.03473 1.08427 5.73588 1.14404C5.49681 1.2038 5.25774 1.50265 5.25774 1.80149V9.09325C5.25774 9.33232 5.1382 9.57139 4.89913 9.63116C4.66005 9.7507 4.42098 9.69093 4.24167 9.51163L2.68769 7.95764C2.32908 7.59903 1.7314 7.59903 1.37279 8.01741C1.07394 8.37602 1.13371 8.91394 1.49232 9.27255L5.67612 13.4563C5.91519 13.6954 5.91519 14.054 5.67612 14.2931C5.55658 14.4126 5.37727 14.4724 5.25774 14.4724C5.07843 14.4724 4.95889 14.4126 4.83936 14.2931L0.655563 10.0495C-0.121427 9.27255 -0.240964 7.95764 0.476258 7.18065C0.894637 6.70251 1.49232 6.40366 2.09001 6.40366C2.62792 6.40366 3.16584 6.64274 3.58422 7.00135L4.12214 7.53926V1.86126C4.12214 1.0245 4.66005 0.247509 5.49681 0.0682039C6.0945 -0.111102 6.75195 0.0682037 7.17033 0.546352C7.52894 0.904963 7.70824 1.32334 7.70824 1.80149V2.51871C7.88755 2.45894 8.12662 2.39917 8.30593 2.39917C8.78408 2.39917 9.20246 2.57848 9.56107 2.93709C9.91968 3.2957 10.099 3.71408 10.099 4.19223V4.31177C10.2783 4.252 10.5174 4.19223 10.6967 4.19223C11.1748 4.19223 11.5932 4.37153 11.9518 4.73015C12.3104 5.08876 12.4897 5.50714 12.4897 5.98528V6.10482C12.5495 6.10482 12.6093 6.04505 12.669 6.04505C13.2667 5.86575 13.9242 6.04505 14.3425 6.5232C14.8207 6.82204 15 7.30019 15 7.71857Z" fill="#828282"/>
</svg>
