<svg width="42" height="42" viewBox="0 0 42 42" fill="none" xmlns="http://www.w3.org/2000/svg">
<path d="M21 3.5C11.3348 3.5 3.5 11.3348 3.5 21C3.5 30.6652 11.3348 38.5 21 38.5C30.6652 38.5 38.5 30.6652 38.5 21C38.5 11.3348 30.6652 3.5 21 3.5ZM21 7C28.7315 7 35 13.2685 35 21C35 28.7315 28.7315 35 21 35C13.2685 35 7 28.7315 7 21C7 13.2685 13.2685 7 21 7ZM12.25 14C11.284 14 10.5 14.7607 10.5 15.6987C10.5 17.2247 12.6311 19.0934 13.4326 19.7969L13.6992 20.0361C14.0685 20.3704 14.504 20.7165 14.875 21C15.246 20.7165 15.6833 20.3686 16.0508 20.0361L16.3174 19.7969C17.1189 19.0934 19.25 17.2247 19.25 15.6987C19.25 14.7607 18.466 14 17.5 14C15.8287 14 14.8613 14.9126 14.8613 14.9126C14.8543 14.9056 13.7882 14 12.25 14ZM24.5 14C23.534 14 22.75 14.7607 22.75 15.6987C22.75 17.2247 24.8811 19.0934 25.6826 19.7969L25.9492 20.0361C26.3185 20.3704 26.754 20.7165 27.125 21C27.4977 20.7165 27.9333 20.3686 28.3008 20.0361L28.5674 19.7969C29.3689 19.0934 31.5 17.2247 31.5 15.6987C31.5 14.7607 30.716 14 29.75 14C28.0788 14 27.1113 14.9126 27.1113 14.9126C27.1043 14.9056 26.0382 14 24.5 14ZM12.0586 24.5C13.4586 28.07 16.9225 30.625 21 30.625C25.0775 30.625 28.5414 28.07 29.9414 24.5H12.0586Z" fill="#E0E0E0"/>
</svg>
