<svg width="31" height="30" viewBox="0 0 31 30" fill="none" xmlns="http://www.w3.org/2000/svg">
<path d="M21.0974 0.619526L1.40649 9.29266C0.622875 9.63782 0.280992 10.5501 0.626147 11.3337L7.86999 27.7796C8.21514 28.5633 9.11901 28.9268 9.90262 28.5817L29.5935 19.9086C30.3771 19.5634 30.719 18.6511 30.3739 17.8675L23.13 1.42158C22.7849 0.637961 21.881 0.27437 21.0974 0.619526ZM20.2927 12.8315C20.0645 12.7221 19.7737 12.6882 19.5125 12.8033C19.2563 12.9161 19.1286 13.1163 18.9957 13.3728L18.4059 14.5802C18.2719 14.8071 18.1583 14.9712 17.9322 15.0707C17.7162 15.1659 17.4849 15.1718 17.289 15.1081C17.2188 15.0851 17.0908 15.0395 16.9822 14.9973L12.9921 13.2642C12.6894 13.1216 12.3238 13.1087 11.9873 13.2569C11.6507 13.4052 11.4123 13.7081 11.316 14.0205L8.33795 24.4847L2.5743 11.3993C2.47408 11.0356 2.63189 10.6722 2.97347 10.5217L20.9414 2.6075C21.288 2.45484 21.6821 2.58712 21.8549 2.92487L27.6314 15.9986L20.2927 12.8315Z" fill="#828282"/>
<rect x="5.06177" y="4.1127" width="22.4615" height="18.9816" fill="#333333"/>
<path d="M22.7055 12.5714C24.16 12.5714 25.3401 11.3913 25.3401 9.93672C25.3401 8.48217 24.16 7.30206 22.7055 7.30206C21.2509 7.30206 20.0708 8.48217 20.0708 9.93672C20.0708 11.3913 21.2509 12.5714 22.7055 12.5714Z" fill="#828282"/>
<path d="M27.3162 3.78918H5.79982C4.94356 3.78918 4.26294 4.48627 4.26294 5.34253V23.3131C4.26294 24.1694 4.94356 24.8664 5.79982 24.8664H27.3162C28.1725 24.8664 28.8531 24.1694 28.8531 23.3131V5.34253C28.8531 4.48627 28.1725 3.78918 27.3162 3.78918ZM21.6572 14.6407C21.4925 14.4486 21.24 14.3004 20.9546 14.3004C20.6747 14.3004 20.4771 14.4321 20.252 14.6132L19.2256 15.4805C19.0115 15.6342 18.8414 15.7385 18.5944 15.7385C18.3584 15.7385 18.1443 15.6506 17.9906 15.5134C17.9357 15.464 17.8369 15.3707 17.7546 15.2884L14.8016 12.0938C14.582 11.8414 14.2527 11.6822 13.8849 11.6822C13.5172 11.6822 13.1769 11.8633 12.9628 12.1103L6.01938 20.4863V6.18782C6.07427 5.81458 6.36518 5.54562 6.73842 5.54562H26.3721C26.7508 5.54562 27.0582 5.82556 27.0802 6.20429L27.0966 20.4973L21.6572 14.6407Z" fill="#828282"/>
</svg>
