<svg width="18" height="18" viewBox="0 0 18 18" fill="none" xmlns="http://www.w3.org/2000/svg">
<path d="M9.00002 0C6.55575 0 6.24926 0.0103604 5.28931 0.0541599C4.33137 0.097888 3.67712 0.250007 3.10462 0.472506C2.51279 0.702507 2.01088 1.01025 1.51055 1.51058C1.01021 2.01092 0.702471 2.51283 0.47247 3.10466C0.249972 3.67712 0.0978523 4.33137 0.0541242 5.28931C0.0103247 6.24926 0 6.55575 0 9.00002C0 11.4443 0.0103247 11.7507 0.0541242 12.7107C0.0978523 13.6686 0.249972 14.3229 0.47247 14.8953C0.702471 15.4872 1.01021 15.9891 1.51055 16.4895C2.01088 16.9898 2.51279 17.2975 3.10462 17.5275C3.67712 17.75 4.33137 17.9021 5.28931 17.9458C6.24926 17.9896 6.55575 18 9.00002 18C11.4443 18 11.7507 17.9896 12.7107 17.9458C13.6686 17.9021 14.3229 17.75 14.8953 17.5275C15.4872 17.2975 15.9891 16.9898 16.4894 16.4895C16.9898 15.9891 17.2975 15.4872 17.5275 14.8953C17.75 14.3229 17.9021 13.6686 17.9458 12.7107C17.9896 11.7507 18 11.4443 18 9.00002C18 6.55575 17.9896 6.24926 17.9458 5.28931C17.9021 4.33137 17.75 3.67712 17.5275 3.10466C17.2975 2.51283 16.9898 2.01092 16.4894 1.51058C15.9891 1.01025 15.4872 0.702507 14.8953 0.472506C14.3229 0.250007 13.6686 0.097888 12.7107 0.0541599C11.7507 0.0103604 11.4443 0 9.00002 0ZM9.00002 1.62165C11.4031 1.62165 11.6878 1.6308 12.6368 1.6741C13.5143 1.71415 13.9908 1.86077 14.3079 1.98398C14.728 2.14725 15.0278 2.34231 15.3428 2.65723C15.6577 2.97215 15.8527 3.272 16.016 3.69206C16.1393 4.00919 16.2859 4.48574 16.3259 5.36323C16.3692 6.31224 16.3784 6.5969 16.3784 9.00002C16.3784 11.4031 16.3692 11.6878 16.3259 12.6368C16.2859 13.5143 16.1393 13.9908 16.016 14.3079C15.8527 14.728 15.6577 15.0278 15.3428 15.3428C15.0278 15.6577 14.728 15.8528 14.3079 16.016C13.9908 16.1393 13.5143 16.2859 12.6368 16.3259C11.6879 16.3692 11.4033 16.3784 9.00002 16.3784C6.59672 16.3784 6.31213 16.3692 5.36323 16.3259C4.48574 16.2859 4.00919 16.1393 3.69206 16.016C3.27196 15.8528 2.97215 15.6577 2.65719 15.3428C2.34227 15.0278 2.14721 14.728 1.98398 14.3079C1.86073 13.9908 1.71411 13.5143 1.67406 12.6368C1.63076 11.6878 1.62162 11.4031 1.62162 9.00002C1.62162 6.5969 1.63076 6.31224 1.67406 5.36323C1.71411 4.48574 1.86073 4.00919 1.98398 3.69206C2.14721 3.272 2.34227 2.97215 2.65719 2.65723C2.97215 2.34231 3.27196 2.14725 3.69206 1.98398C4.00919 1.86077 4.48574 1.71415 5.36323 1.6741C6.31224 1.6308 6.5969 1.62165 9.00002 1.62165Z" fill="#828282"/>
<path d="M8.99908 11.9991C7.3422 11.9991 5.99906 10.6559 5.99906 8.99908C5.99906 7.3422 7.3422 5.99906 8.99908 5.99906C10.6559 5.99906 11.9991 7.3422 11.9991 8.99908C11.9991 10.6559 10.6559 11.9991 8.99908 11.9991ZM8.99908 4.37744C6.44659 4.37744 4.37744 6.44659 4.37744 8.99908C4.37744 11.5515 6.44659 13.6207 8.99908 13.6207C11.5515 13.6207 13.6207 11.5515 13.6207 8.99908C13.6207 6.44659 11.5515 4.37744 8.99908 4.37744Z" fill="#828282"/>
<path d="M14.8849 4.19571C14.8849 4.79218 14.4013 5.27569 13.8048 5.27569C13.2084 5.27569 12.7249 4.79218 12.7249 4.19571C12.7249 3.59923 13.2084 3.11572 13.8048 3.11572C14.4013 3.11572 14.8849 3.59923 14.8849 4.19571Z" fill="#828282"/>
</svg>
