<svg width="13" height="17" viewBox="0 0 13 17" fill="none" xmlns="http://www.w3.org/2000/svg">
<path fillRule="evenodd" clipRule="evenodd" d="M5.18912 14.8012H7.59961C7.93098 14.8012 8.19961 15.0698 8.19961 15.4012C8.19961 15.7325 7.93098 16.0012 7.59961 16.0012H4.41742C4.40588 16.0015 4.39429 16.0015 4.38267 16.0012H1.19961C0.868239 16.0012 0.599609 15.7325 0.599609 15.4012C0.599609 15.0698 0.868239 14.8012 1.19961 14.8012H3.94369L7.61035 1.60117H5.19961C4.86824 1.60117 4.59961 1.33254 4.59961 1.00117C4.59961 0.669803 4.86824 0.401174 5.19961 0.401174H8.39161C8.39678 0.401106 8.40196 0.401106 8.40715 0.401174L11.5996 0.401174C11.931 0.401174 12.1996 0.669803 12.1996 1.00117C12.1996 1.33254 11.931 1.60117 11.5996 1.60117H8.85579L5.18912 14.8012Z" fill="#92929D"/>
</svg>
