<svg width="16" height="16" viewBox="0 0 16 16" fill="none" xmlns="http://www.w3.org/2000/svg">
<path fillRule="evenodd" clipRule="evenodd" d="M15.1532 1.98467L14.0155 0.846948C13.1528 -0.0157143 11.7542 -0.0157143 10.8915 0.846948L8.04719 3.69126C7.18453 4.55392 7.18453 5.95257 8.04719 6.81523L8.199 6.96704L6.96728 8.19876L6.81548 8.04695C5.95281 7.18429 4.55416 7.18429 3.6915 8.04695L0.847192 10.8913C-0.0154702 11.7539 -0.0154702 13.1526 0.847192 14.0152L1.98492 15.153C2.84758 16.0156 4.24623 16.0156 5.10889 15.153L7.9532 12.3086C8.81586 11.446 8.81586 10.0473 7.9532 9.18467L7.81581 9.04729L9.04753 7.81557L9.18491 7.95295C10.0476 8.81562 11.4462 8.81562 12.3089 7.95295L15.1532 5.10865C16.0159 4.24598 16.0159 2.84733 15.1532 1.98467ZM9.89606 6.96704L10.0334 7.10443C10.4275 7.49846 11.0663 7.49846 11.4604 7.10443L14.3047 4.26012C14.6987 3.86609 14.6987 3.22723 14.3047 2.8332L13.1669 1.69548C12.7729 1.30144 12.1341 1.30144 11.74 1.69548L8.89572 4.53978C8.50169 4.93382 8.50169 5.57267 8.89572 5.9667L9.04753 6.11851L9.98314 5.1829C10.238 4.92799 10.5979 4.94916 10.8317 5.1829C11.0654 5.41664 11.0866 5.77652 10.8317 6.03143L9.89606 6.96704ZM6.11876 9.04729L5.18314 9.9829C4.92824 10.2378 4.94941 10.5977 5.18314 10.8314C5.41688 11.0652 5.77676 11.0863 6.03167 10.8314L6.96728 9.89581L7.10467 10.0332C7.4987 10.4272 7.4987 11.0661 7.10467 11.4601L4.26036 14.3044C3.86633 14.6985 3.22748 14.6985 2.83344 14.3044L1.69572 13.1667C1.30169 12.7727 1.30169 12.1338 1.69572 11.7398L4.54003 8.89548C4.93406 8.50144 5.57291 8.50144 5.96695 8.89548L6.11876 9.04729Z" fill="#92929D"/>
</svg>
