<svg width="22" height="20" viewBox="0 0 22 20" fill="none" xmlns="http://www.w3.org/2000/svg">
<path fillRule="evenodd" clipRule="evenodd" d="M0.554984 6.4135H4.84292V20H0.554984V6.4135ZM2.58964 4.71417H2.55853C1.00633 4.71417 0 3.67554 0 2.35898C0 1.01681 1.03606 0 2.61937 0C4.20131 0 5.17413 1.01423 5.20506 2.3552C5.20506 3.67158 4.20131 4.71417 2.58964 4.71417ZM22 20H17.1377V12.9691C17.1377 11.1289 16.3771 9.87247 14.7046 9.87247C13.4253 9.87247 12.7139 10.7203 12.3827 11.5372C12.2586 11.8305 12.2779 12.239 12.2779 12.6476V19.9998H7.46092C7.46092 19.9998 7.52297 7.54546 7.46092 6.41332H12.2779V8.5456C12.5625 7.61335 14.1017 6.2827 16.5581 6.2827C19.6056 6.2827 21.9998 8.23691 21.9998 12.4453V20H22Z" fill="#007EBB"/>
</svg>
