<svg width="18" height="18" viewBox="0 0 18 18" fill="none" xmlns="http://www.w3.org/2000/svg">
<path d="M15.429 5.14224L16.2347 3.37674L18.0002 2.57112L16.2347 1.7655L15.429 0L14.6234 1.7655L12.8579 2.57112L14.6234 3.37674L15.429 5.14224Z" fill="#333333"/>
<path d="M5.57308 5.14224L6.37869 3.37674L8.1442 2.57112L6.37869 1.7655L5.57308 0L4.76746 1.7655L3.00195 2.57112L4.76746 3.37674L5.57308 5.14224Z" fill="#333333"/>
<path d="M15.429 9.85596L14.6234 11.6215L12.8579 12.4271L14.6234 13.2327L15.429 14.9982L16.2347 13.2327L18.0002 12.4271L16.2347 11.6215L15.429 9.85596Z" fill="#333333"/>
<path d="M13.4663 6.95912L11.0408 4.5337C10.8694 4.37086 10.6552 4.28516 10.4323 4.28516C10.2095 4.28516 9.99524 4.37086 9.82383 4.5337L0.250684 14.1068C-0.0835615 14.4411 -0.0835615 14.981 0.250684 15.3153L2.67611 17.7407C2.84752 17.9121 3.06178 17.9978 3.28461 17.9978C3.50744 17.9978 3.7217 17.9121 3.89311 17.7493L13.4663 8.17612C13.8005 7.84188 13.8005 7.29337 13.4663 6.95912ZM10.4323 6.35919L11.6408 7.56762L10.638 8.57036L9.42959 7.36193L10.4323 6.35919ZM3.28461 15.9323L2.07618 14.7239L8.22116 8.57036L9.42959 9.77879L3.28461 15.9323Z" fill="#333333"/>
</svg>
