<svg width="21" height="20" viewBox="0 0 21 20" fill="none" xmlns="http://www.w3.org/2000/svg">
<path d="M15.8207 10.5176L5.39217 0L3.7474 1.65882L6.52368 4.45882L0.516178 10.5176C-0.172059 11.2118 -0.172059 12.3294 0.516178 13.0118L6.93195 19.4824C7.27024 19.8235 7.72518 20 8.16845 20C8.61172 20 9.06666 19.8235 9.40494 19.4824L15.8207 13.0118C16.509 12.3294 16.509 11.2118 15.8207 10.5176ZM2.58089 11.7647L8.16845 6.12941L13.756 11.7647H2.58089ZM18.667 13.5294C18.667 13.5294 16.334 16.0824 16.334 17.6471C16.334 18.9412 17.3838 20 18.667 20C19.9501 20 21 18.9412 21 17.6471C21 16.0824 18.667 13.5294 18.667 13.5294Z" fill="#828282"/>
</svg>
