<svg width="19" height="25" viewBox="0 0 19 25" fill="none" xmlns="http://www.w3.org/2000/svg">
<path d="M17 10.6875C17 15.7134 13.4272 19.375 9.5 19.375C5.57281 19.375 2 15.7134 2 10.6875C2 5.66156 5.57281 2 9.5 2C13.4272 2 17 5.66156 17 10.6875Z" stroke="#FF3294" strokeWidth="4"/>
<path d="M6.5767 15.2767L11.4729 12.3549L14.0296 16.6392L11.2446 18.3011C12.8624 20.9536 15.6488 19.9742 15.6488 19.9742C15.6488 19.9742 15.7152 20.0557 16.6685 21.6829C12.0499 23.3609 9.74825 20.5068 9.1347 19.5602L9.13366 19.5609L9.11771 19.5341C9.01338 19.3718 8.95695 19.2648 8.95695 19.2648L6.57696 15.2765L6.5767 15.2767Z" fill="#333333"/>
</svg>
