<svg xmlns="http://www.w3.org/2000/svg" viewBox="0 0 220 220" enable-background="new 0 0 220 220"><path fill-rule="evenodd" clip-rule="evenodd" fill="#F6F7F7" d="M0 0h220v220h-220z"/><path fill="#D6D6D6" d="M170.7 153.9c0 6.9-2.1 12.3-6.3 16.3-4.2 4-9.8 6-16.7 6h-75.4c-7 0-12.5-2-16.7-6-4.2-4-6.3-9.4-6.3-16.3 0-3 .1-6 .3-8.9.2-2.9.6-6 1.2-9.4.6-3.4 1.4-6.5 2.3-9.3.9-2.9 2.2-5.7 3.7-8.4s3.3-5.1 5.3-7c2-1.9 4.5-3.5 7.4-4.6 2.9-1.1 6.1-1.7 9.6-1.7.5 0 1.7.6 3.6 1.9 1.9 1.2 4 2.6 6.4 4.1 2.4 1.5 5.5 2.9 9.3 4.1s7.7 1.9 11.5 1.9 7.7-.6 11.5-1.9c3.8-1.2 6.9-2.6 9.3-4.1s4.5-2.9 6.4-4.1c1.9-1.2 3.1-1.9 3.6-1.9 3.5 0 6.7.6 9.6 1.7 2.9 1.1 5.4 2.7 7.4 4.6 2 1.9 3.8 4.3 5.3 7 1.6 2.7 2.8 5.5 3.7 8.4.9 2.9 1.7 6 2.3 9.3.6 3.4 1 6.5 1.2 9.4.4 2.8.5 5.8.5 8.9zm-27.6-77c0 9.1-3.2 16.9-9.7 23.4-6.5 6.5-14.3 9.7-23.4 9.7s-16.9-3.2-23.4-9.7-9.7-14.3-9.7-23.4 3.2-16.9 9.7-23.4 14.3-9.7 23.4-9.7c9.1 0 16.9 3.2 23.4 9.7 6.5 6.5 9.7 14.3 9.7 23.4z"/></svg>