<svg width="18" height="15" viewBox="0 0 18 15" fill="none" xmlns="http://www.w3.org/2000/svg">
<path d="M15.891 2.313C16.699 1.817 17.234 1.14 17.496 0.279C16.71 0.696 15.927 0.982 15.145 1.14C14.442 0.384 13.552 0 12.485 0C11.442 0 10.561 0.366 9.842 1.078C9.127 1.795 8.766 2.666 8.766 3.683C8.766 3.992 8.805 4.268 8.883 4.502C5.807 4.397 3.261 3.121 1.255 0.665C0.915 1.266 0.745 1.878 0.745 2.511C0.745 3.812 1.294 4.843 2.39 5.6C1.765 5.547 1.214 5.389 0.745 5.13C0.745 6.059 1.018 6.835 1.565 7.518C2.114 8.194 2.819 8.625 3.68 8.809C3.368 8.889 3.039 8.927 2.701 8.927C2.389 8.927 2.168 8.901 2.037 8.844C2.267 9.601 2.701 10.215 3.328 10.685C3.953 11.157 4.672 11.406 5.48 11.428C4.148 12.473 2.625 12.99 0.902 12.99C0.48 12.99 0.181 12.984 0 12.952C1.697 14.054 3.586 14.601 5.676 14.601C7.815 14.601 9.705 14.059 11.35 12.975C12.995 11.897 14.209 10.567 14.989 9.001C15.773 7.437 16.161 5.809 16.161 4.109V3.641C16.919 3.071 17.532 2.429 18.001 1.72C17.321 2.013 16.618 2.212 15.891 2.313Z" fill="#828282"/>
</svg>
