<svg width="14" height="18" viewBox="0 0 14 18" fill="none" xmlns="http://www.w3.org/2000/svg">
<path fillRule="evenodd" clipRule="evenodd" d="M12.6 0.601318C12.2686 0.601318 12 0.869948 12 1.20132V8.40132C12 11.1627 9.76142 13.4013 7 13.4013C4.23858 13.4013 2 11.1627 2 8.40132V1.20132C2 0.869948 1.73137 0.601318 1.4 0.601318C1.06863 0.601318 0.8 0.869948 0.8 1.20132V8.40132C0.8 11.8255 3.57583 14.6013 7 14.6013C10.4242 14.6013 13.2 11.8255 13.2 8.40132V1.20132C13.2 0.869948 12.9314 0.601318 12.6 0.601318ZM0 16.4013C0 16.7327 0.268629 17.0013 0.6 17.0013H13.4C13.7314 17.0013 14 16.7327 14 16.4013C14 16.0699 13.7314 15.8013 13.4 15.8013H0.6C0.268629 15.8013 0 16.0699 0 16.4013Z" fill="#92929D"/>
</svg>
