<svg width="24" height="19" viewBox="0 0 24 19" fill="none" xmlns="http://www.w3.org/2000/svg">
<path fillRule="evenodd" clipRule="evenodd" d="M12.9374 4.49973C13.7157 4.10981 14.25 3.3048 14.25 2.375C14.25 1.06332 13.1867 0 11.875 0C10.5633 0 9.5 1.06332 9.5 2.375C9.5 3.3048 10.0343 4.10981 10.8126 4.49973L8.3125 9.5L4.58072 8.00729C4.68992 7.73452 4.75 7.43678 4.75 7.125C4.75 5.81332 3.68668 4.75 2.375 4.75C1.06332 4.75 0 5.81332 0 7.125C0 8.43668 1.06332 9.5 2.375 9.5C2.5096 9.5 2.64159 9.4888 2.77008 9.46729L4.0375 16.9812C4.15625 18.1687 5.225 19 6.29375 19H17.3375C18.525 19 19.475 18.1687 19.7125 16.9812L20.9799 9.46729C21.1084 9.4888 21.2404 9.5 21.375 9.5C22.6867 9.5 23.75 8.43668 23.75 7.125C23.75 5.81332 22.6867 4.75 21.375 4.75C20.0633 4.75 19 5.81332 19 7.125C19 7.43678 19.0601 7.73452 19.1693 8.00729L15.4375 9.5L12.9374 4.49973Z" fill="#F2C94C"/>
</svg>
